<svg width="240" height="234" viewBox="0 0 240 234" fill="none" xmlns="http://www.w3.org/2000/svg">
<g clip-path="url(#clip0_5_71)">
<path d="M42.5 1.88608e-05H197.5C203.083 -0.00524284 208.612 1.09046 213.77 3.22442C218.929 5.35838 223.616 8.48871 227.564 12.4362C231.511 16.3838 234.642 21.071 236.776 26.2297C238.91 31.3885 240.005 36.9174 240 42.5V191.5C240.005 197.083 238.91 202.612 236.776 207.77C234.642 212.929 231.511 217.616 227.564 221.564C223.616 225.511 218.929 228.642 213.77 230.776C208.612 232.91 203.083 234.005 197.5 234H42.5C36.9174 234.005 31.3885 232.91 26.2297 230.776C21.071 228.642 16.3838 225.511 12.4362 221.564C8.48871 217.616 5.35838 212.929 3.22442 207.77C1.09046 202.612 -0.00524284 197.083 1.88608e-05 191.5V42.5C-0.00524284 36.9174 1.09046 31.3885 3.22442 26.2297C5.35838 21.071 8.48871 16.3838 12.4362 12.4362C16.3838 8.48871 21.071 5.35838 26.2297 3.22442C31.3885 1.09046 36.9174 -0.00524284 42.5 1.88608e-05Z" fill="#470137"/>
<path d="M22.8 163.8V61.4C22.7706 61.0968 22.8576 60.7939 23.0433 60.5525C23.229 60.3111 23.4995 60.1493 23.8 60.1H23.9C25.4 60 27.7 59.9 30.6 59.9C33.5 59.9 37 59.8 41 59.7C45 59.6 49.2 59.6 53.7 59.6C65.9 59.6 76.1 61.8 84.1 66.2C91.7993 70.2989 98.1012 76.6008 102.2 84.3C106.2 92 108.2 100.8 108.2 110.8C108.328 117.759 107.28 124.69 105.1 131.3C103.194 136.914 100.28 142.133 96.5 146.7C92.984 150.887 88.8336 154.498 84.2 157.4C79.6341 160.207 74.6815 162.329 69.5 163.7C64.4721 165.016 59.2973 165.688 54.1 165.7H42.8C38.8 165.7 35 165.7 31.6 165.6C28.2 165.5 25.5 165.5 23.8 165.4C23.1 165.4 22.8 164.8 22.8 163.8ZM43.9 79.4V146.1C45 146.1 46 146.1 47 146.2C48 146.3 48.9 146.3 49.8 146.4C50.7 146.5 51.9 146.5 53.1 146.5C57.7367 146.583 62.3484 145.803 66.7 144.2C70.6868 142.792 74.2845 140.462 77.2 137.4C80.1937 134.216 82.4774 130.432 83.9 126.3C85.4984 121.461 86.3087 116.396 86.3 111.3C86.3914 106.5 85.6122 101.722 84 97.2C82.6205 93.3475 80.3538 89.8737 77.3832 87.0594C74.4126 84.2452 70.8214 82.1694 66.9 81C62.6286 79.6707 58.173 79.0293 53.7 79.1C51.7 79.1 50 79.1 48.6 79.2C47.2 79.3 45.6 79.3 43.9 79.4Z" fill="#FF61F6"/>
<path d="M197.8 165.4H179.1C178.883 165.435 178.66 165.416 178.451 165.347C178.242 165.277 178.053 165.158 177.9 165C177.622 164.644 177.418 164.236 177.3 163.8C175.4 155.8 173.8 148.6 172.5 142.5C171.2 136.4 170.1 131.1 169.3 126.8C168.5 122.5 167.8 118.9 167.2 115.9C166.6 112.9 166.2 110.4 165.9 108.3H165.8C164.8 112.7 163.9 117 163 121.1C162.1 125.2 161.2 129.4 160.2 133.6C159.2 137.8 158.1 142.4 156.8 147.4C155.5 152.4 154.2 157.9 152.7 163.8C152.5 164.9 152 165.4 151.1 165.4H132.4C131.913 165.457 131.421 165.351 131 165.1C130.71 164.773 130.474 164.401 130.3 164L110.8 86.7C110.5 85.8 110.9 85.4 112 85.4H130.9C131.8 85.4 132.3 85.7 132.4 86.4C134.4 95.2 136.1 102.8 137.4 109.2C138.7 115.6 139.8 121 140.5 125.5C141.2 130 141.9 133.7 142.4 136.5C142.9 139.3 143.3 141.7 143.6 143.5H143.9C144.1 141.9 144.3 140.4 144.6 138.8C145 136.9 145.5 134.4 146.1 131.3C146.7 128.2 147.4 124.6 148.3 120.4C149.2 116.2 150.2 111.4 151.4 105.8C152.6 100.2 154.1 94 156 86.9C156.04 86.4433 156.177 86.0003 156.4 85.6C156.5 85.4 156.9 85.3 157.5 85.3H177.1C177.7 85.3 178 85.7 178.1 86.4C179.8 93.7 181.2 100.1 182.4 105.6C183.6 111.1 184.5 116 185.4 120.3C186.3 124.6 186.9 128.2 187.3 131.2C187.7 134.2 188.2 136.8 188.6 138.9C188.931 140.585 189.165 142.288 189.3 144H189.6C190.1 142 190.5 139.6 190.9 136.9C191.3 134.2 191.8 131.2 192.5 127.8C193.2 124.4 193.8 120.7 194.6 116.6C195.4 112.5 196.3 108 197.4 102.9C198.5 97.8 199.7 92.4 201.1 86.5C201.3 85.6 201.7 85.2 202.4 85.2H219.9C220.8 85.2 221.1 85.7 220.9 86.6L199.3 163.7C199.202 164.114 198.995 164.493 198.7 164.8C198.7 165.3 198.3 165.5 197.8 165.4Z" fill="#FF61F6"/>
</g>
<defs>
<clipPath id="clip0_5_71">
<rect width="240" height="234" fill="white"/>
</clipPath>
</defs>
</svg>
