<svg xmlns="http://www.w3.org/2000/svg" id="Layer_2" data-name="Layer 2" viewBox="0 0 1119.69 1119.75"><defs><style>      .cls-1 {        fill: #231f20;      }    </style></defs><g id="Layer_1-2" data-name="Layer 1"><g><path class="cls-1" d="m559.11,507.53c-29.54,0-53.58,23.48-53.58,52.35s24.04,52.35,53.58,52.35,53.58-23.48,53.58-52.35-24.04-52.35-53.58-52.35Z"></path><path class="cls-1" d="m989.2,574.07c39.02-.24,83.25-.51,130.49-.51v-28.37c-47.24,0-91.47-.27-130.5-.51-70.92-.43-129.88-.79-178.48.5-37.87-1.01-68.9-3.11-93.82-6.88,23.05-10.2,52.43-20.4,88.69-31.36,47.21-11.56,104.04-27.45,172.32-46.55,37.58-10.51,80.17-22.43,125.74-34.88l-7.47-27.37c-45.58,12.45-88.31,23.85-126.02,33.9-68.51,18.27-125.52,33.47-172.06,47.52-35.86,8.78-65.79,14.88-90.47,17.91,19.39-15.29,44.55-32.15,75.56-51.27,42.68-23.27,93.53-53.2,154.64-89.17,33.63-19.79,71.75-42.23,112.61-65.94l-14.24-24.54c-40.86,23.71-79.25,45.69-113.12,65.07-61.54,35.22-112.75,64.52-154.13,90.04-32.11,17.51-59.3,31.02-82.25,40.27,14.88-19.98,35.07-43.02,60.56-69.91,35.28-33.45,76.74-75.42,126.58-125.86,27.42-27.76,58.51-59.23,91.92-92.63l-20.06-20.06c-33.41,33.41-64.87,64.49-92.63,91.92-50.44,49.83-92.41,91.3-125.86,126.57-26.99,25.59-50.1,45.83-70.13,60.72,9.2-23.21,22.76-50.76,40.5-83.46,25.42-41.44,54.61-92.71,89.68-154.33,19.31-33.91,41.19-72.35,64.81-113.26l-24.57-14.19c-23.62,40.91-45.97,79.08-65.68,112.75-35.82,61.19-65.64,112.11-88.81,154.84-19.81,32.29-37.15,58.11-52.87,77.81,2.69-25.05,8.54-55.6,17.19-92.48,13.6-46.67,28.24-103.83,45.85-172.51,9.69-37.8,20.66-80.65,32.67-126.34l-27.44-7.21c-12,45.69-23.51,88.4-33.65,126.08-18.43,68.46-33.77,125.44-44.87,172.76-10.51,36.08-20.36,65.41-30.26,88.47-3.7-24.71-5.81-55.38-6.89-92.63,1.18-48.59.69-107.6.1-178.5-.32-39.02-.7-83.25-.8-130.5l-28.37.06c.11,47.24-.06,91.47-.21,130.5-.27,70.9-.5,129.91.91,178.5-.88,36.04-2.72,66.06-6.08,90.38-9.66-22.66-19.32-51.26-29.64-86.03-11.33-47.27-26.95-104.17-45.71-172.55-10.33-37.63-22.03-80.28-34.26-125.91l-27.4,7.34c12.23,45.63,23.41,88.43,33.29,126.18,17.93,68.59,32.86,125.68,46.68,172.28,8.67,36.17,14.64,66.3,17.52,91.1-15.49-19.57-32.58-45.09-52.03-76.8-23.17-42.73-52.99-93.65-88.81-154.83-19.72-33.68-42.06-71.85-65.69-112.76l-24.57,14.19c23.62,40.91,45.5,79.35,64.81,113.26,35.07,61.62,64.27,112.9,89.69,154.33,18.06,33.3,31.75,61.23,40.95,84.69-20.35-14.86-43.88-35.2-71.5-61.13-33.62-35.11-75.8-76.37-126.48-125.96-27.9-27.29-59.51-58.22-93.08-91.47l-19.96,20.16c33.57,33.24,64.8,64.56,92.36,92.18,50.09,50.2,91.75,91.97,127.19,125.25,25.92,27.08,46.36,50.22,61.38,70.29-23.4-9.15-51.23-22.73-84.36-40.6-41.5-25.32-92.84-54.4-154.54-89.34-33.96-19.23-72.44-41.02-113.4-64.55l-14.13,24.6c40.97,23.53,79.19,45.79,112.91,65.43,61.27,35.68,112.25,65.38,155.03,88.46,31.03,18.94,56.23,35.65,75.67,50.82-24.38-2.98-53.87-8.91-88.97-17.31-46.6-13.83-103.69-28.75-172.29-46.69-37.75-9.87-80.55-21.06-126.18-33.29l-7.35,27.4c45.63,12.23,88.29,23.93,125.91,34.26,68.37,18.77,125.28,34.38,172.55,45.71,35.66,10.58,64.73,20.48,87.65,30.38-24.69,3.63-55.33,5.67-92.5,6.66-48.59-1.29-107.62-.94-178.52-.51-39.02.24-83.25.51-130.5.51v28.37c47.24,0,91.47.27,130.49.51,70.91.43,129.9.79,178.5-.5,37.86,1.01,68.89,3.11,93.81,6.88-23.04,10.2-52.42,20.4-88.68,31.36-47.21,11.56-104.04,27.45-172.32,46.55-37.58,10.51-80.18,22.43-125.74,34.88l7.47,27.37c45.58-12.45,88.31-23.85,126.02-33.9,68.51-18.27,125.52-33.47,172.06-47.52,35.69-8.74,65.52-14.83,90.13-17.87-19.54,15.55-45.03,32.69-76.71,52.23-42.67,23.27-93.53,53.2-154.63,89.17-33.63,19.79-71.75,42.23-112.61,65.94l14.24,24.54c40.86-23.71,79.25-45.69,113.12-65.07,61.54-35.22,112.75-64.52,154.13-90.04,32.63-17.79,60.14-31.41,83.31-40.66-14.84,19.84-34.91,42.71-60.14,69.33-35.28,33.45-76.75,75.42-126.58,125.86-27.42,27.76-58.51,59.23-91.92,92.63l20.06,20.06c33.41-33.41,64.87-64.49,92.63-91.92,50.44-49.83,92.41-91.3,125.86-126.57,26.99-25.59,50.1-45.82,70.13-60.71-9.2,23.2-22.76,50.76-40.49,83.45-25.42,41.44-54.61,92.72-89.69,154.34-19.31,33.91-41.19,72.35-64.81,113.26l24.57,14.19c23.62-40.92,45.97-79.09,65.69-112.76,35.82-61.19,65.64-112.11,88.81-154.83,19.8-32.29,37.14-58.11,52.86-77.8-2.69,25.06-8.54,55.61-17.19,92.49-13.6,46.67-28.24,103.83-45.84,172.51-9.68,37.8-20.66,80.64-32.67,126.34l27.44,7.21c12-45.69,23.51-88.4,33.65-126.08,18.43-68.46,33.77-125.44,44.87-172.76,10.09-34.63,19.57-63.18,29.06-85.83,3.54,24.42,5.55,54.61,6.6,90.98-1.18,48.59-.69,107.59-.1,178.49.33,39.02.7,83.25.8,130.5l28.37-.06c-.11-47.24.06-91.47.21-130.49.27-70.9.49-129.91-.91-178.5.92-37.68,2.93-68.6,6.6-93.47,9.98,22.99,19.94,52.21,30.6,88.13,11.33,47.27,26.95,104.18,45.71,172.55,10.33,37.63,22.03,80.28,34.26,125.91l27.4-7.34c-12.23-45.63-23.41-88.43-33.29-126.18-17.93-68.6-32.86-125.68-46.68-172.28-8.67-36.17-14.63-66.3-17.52-91.09,15.49,19.57,32.58,45.09,52.03,76.8,23.18,42.73,52.99,93.65,88.82,154.84,19.71,33.67,42.06,71.84,65.68,112.76l24.57-14.19c-23.62-40.91-45.5-79.35-64.81-113.26-35.07-61.62-64.26-112.89-89.68-154.33-18.06-33.3-31.76-61.23-40.95-84.69,20.35,14.86,43.88,35.2,71.5,61.13,33.62,35.11,75.8,76.37,126.48,125.96,27.9,27.29,59.51,58.22,93.08,91.47l19.96-20.16c-33.57-33.24-64.8-64.55-92.36-92.18-50.09-50.21-91.75-91.97-127.19-125.25-25.01-26.12-45.02-48.64-59.9-68.22,22.76,9.14,49.71,22.42,81.39,39.51,41.49,25.32,92.84,54.4,154.54,89.34,33.96,19.23,72.45,41.02,113.41,64.55l14.13-24.6c-40.97-23.53-79.19-45.79-112.91-65.43-61.26-35.68-112.26-65.38-155.04-88.46-31.92-19.48-57.56-36.58-77.21-52.09,24.96,2.84,55.36,8.82,91.98,17.6,46.61,13.83,103.69,28.75,172.29,46.69,37.75,9.87,80.55,21.06,126.18,33.29l7.35-27.4c-45.63-12.23-88.29-23.93-125.91-34.26-68.37-18.77-125.28-34.38-172.55-45.71-35.66-10.58-64.73-20.48-87.64-30.38,24.69-3.63,55.33-5.67,92.51-6.66,48.59,1.29,107.6.93,178.51.5Zm-357.81,4.1c-.86,3.29-1.06,6.69-1.38,10.06-2.15,2.63-4.41,5.18-6.11,8.12-1.67,2.89-2.72,6.06-3.91,9.17-2.7,1.95-5.49,3.79-7.85,6.15-2.42,2.42-4.31,5.27-6.3,8.04-3.27,1.23-6.58,2.37-9.61,4.12-2.63,1.52-4.87,3.58-7.25,5.47-3.24.36-6.5.56-9.65,1.42-3.28.9-6.32,2.42-9.41,3.84-3.35-.55-6.69-1.22-10.09-1.22s-6.61.67-9.9,1.2c-3.04-1.36-6.03-2.86-9.25-3.72-3.85-1.03-7.79-1.56-11.78-1.84-2.2-1.68-4.24-3.59-6.65-4.97-2.56-1.47-5.21-2.75-7.95-3.84-2.05-2.86-4.03-5.77-6.52-8.24-2.41-2.39-5.26-4.26-8.03-6.23-1.2-3.18-2.28-6.4-3.98-9.34-1.67-2.89-3.89-5.39-5.99-7.97-.34-3.31-.54-6.65-1.4-9.87-.98-3.65-2.59-7.06-4.21-10.47.34-2.67.96-5.31.95-8.01,0-2.95-.66-5.84-1.08-8.75,1.65-3.49,3.27-6.98,4.24-10.7.86-3.29,1.06-6.68,1.38-10.06,2.15-2.63,4.4-5.18,6.11-8.13,1.67-2.89,2.72-6.06,3.91-9.17,2.7-1.95,5.49-3.79,7.85-6.15,2.26-2.26,4.01-4.94,5.89-7.51,2.88-1.14,5.85-2.1,8.54-3.66,3.08-1.79,5.77-4.13,8.5-6.42,3.31-.36,6.65-.57,9.87-1.45,3.28-.9,6.32-2.42,9.4-3.84,3.35.55,6.69,1.22,10.09,1.22s6.61-.67,9.9-1.2c3.04,1.36,6.03,2.86,9.25,3.72,2.63.71,5.37.79,8.06,1.15,2.85,2.39,5.67,4.8,8.9,6.65,3.4,1.95,7.08,3.28,10.78,4.57,1.69,2.2,3.19,4.57,5.17,6.52,2.41,2.39,5.26,4.26,8.02,6.23,1.2,3.18,2.28,6.4,3.98,9.35,1.67,2.89,3.89,5.39,5.99,7.97.34,3.31.54,6.65,1.4,9.87.73,2.74,2.07,5.25,3.16,7.86-.72,3.85-1.39,7.7-1.38,11.61,0,3.65.69,7.25,1.34,10.84-1.04,2.53-2.33,4.97-3.02,7.63Z"></path></g></g></svg>